#N canvas 177 79 866 404 10;
#N canvas 0 22 450 278 (subpatch) 0;
#X array array1 10 float 2;
#X coords 0 1 10 -1 200 140 1;
#X restore 243 166 graph;
#X msg 29 166 bang;
#X floatatom 29 210 5 0 0 0 - - -, f 5;
#X floatatom 114 210 5 0 0 0 - - -, f 5;
#X obj 200 209 tgl 15 0 empty empty empty 17 7 0 10 -262144 -1 -1 0
1;
#X obj 19 16 cnv 15 400 40 empty empty empty 20 12 0 14 -191765 -66577
0;
#X text 447 24 Arguments: array name;
#X text 445 47 Inet: bang to find maximum absolute value;
#X text 448 72 Outlets:;
#X text 492 90 1st: maximum absolute value;
#X text 494 108 2nd: index of value;
#X text 496 126 3rd: 1 if value is positive \, 0 if negative;
#X text 545 272 Written by Alexandros Drymonitis;
#X obj 29 188 array_max_abs_extended array1;
#X text 32 22 [array_max_abs]: extended abstraction to find the absolute
maximum value of an array;
#X connect 1 0 13 0;
#X connect 13 0 2 0;
#X connect 13 1 3 0;
#X connect 13 2 4 0;
