#N canvas 0 22 447 360 10;
#X obj 58 115 t f f;
#X obj 148 122 t f f;
#X obj 58 139 max;
#X obj 58 161 outlet;
#X obj 160 185 t f f;
#X obj 285 202 outlet;
#X obj 202 240 f;
#X obj 160 240 f;
#X obj 160 299 outlet index;
#X obj 58 16 inlet;
#X obj 58 41 tabminmax \$1;
#X obj 58 92 abs;
#X obj 160 163 <;
#X obj 160 207 sel 0 1;
#X obj 148 58 unpack;
#X obj 58 63 unpack;
#X connect 0 0 2 0;
#X connect 0 1 12 0;
#X connect 1 0 2 1;
#X connect 1 1 12 1;
#X connect 2 0 3 0;
#X connect 4 0 13 0;
#X connect 4 1 5 0;
#X connect 6 0 8 0;
#X connect 7 0 8 0;
#X connect 9 0 10 0;
#X connect 10 0 15 0;
#X connect 10 1 14 0;
#X connect 11 0 0 0;
#X connect 12 0 4 0;
#X connect 13 0 7 0;
#X connect 13 1 6 0;
#X connect 14 0 1 0;
#X connect 14 1 6 1;
#X connect 15 0 11 0;
#X connect 15 1 7 1;
