#N canvas 249 232 431 333 10;
#X obj 58 73 array max \$1;
#X obj 148 73 array min \$1;
#X obj 58 95 t f f;
#X obj 148 95 abs;
#X obj 148 117 t f f;
#X obj 58 134 max;
#X obj 58 156 outlet;
#X obj 160 143 >;
#X obj 160 165 t f f;
#X obj 285 182 outlet;
#X obj 202 238 f;
#X obj 112 238 f;
#X obj 112 297 outlet index;
#X obj 160 187 sel 1 0;
#X obj 58 16 inlet;
#X obj 58 38 t b b;
#X connect 0 0 2 0;
#X connect 0 1 11 1;
#X connect 1 0 3 0;
#X connect 1 1 10 1;
#X connect 2 0 5 0;
#X connect 2 1 7 0;
#X connect 3 0 4 0;
#X connect 4 0 5 1;
#X connect 4 1 7 1;
#X connect 5 0 6 0;
#X connect 7 0 8 0;
#X connect 8 0 13 0;
#X connect 8 1 9 0;
#X connect 10 0 12 0;
#X connect 11 0 12 0;
#X connect 13 0 11 0;
#X connect 13 1 10 0;
#X connect 14 0 15 0;
#X connect 15 0 0 0;
#X connect 15 1 1 0;
