#N canvas 297 81 673 611 10;
#X obj 26 332 f;
#X obj 53 332 + 1;
#X obj 411 293 f;
#X obj 438 293 - 1;
#X obj 26 254 until;
#X obj 26 276 t b b;
#X obj 411 315 t f f;
#X obj 204 372 t f f;
#X obj 263 412 f;
#X obj 204 481 f;
#X obj 204 395 t b f b;
#X obj 26 163 / 2;
#X obj 290 491 f;
#X obj 263 434 t f b;
#X obj 26 83 inlet;
#X obj 278 389 tabread \$1;
#X obj 438 464 tabread \$1;
#X obj 204 508 tabwrite \$1;
#X obj 232 44 inlet;
#X obj 232 66 symbol;
#X obj 232 88 t s s;
#X msg 259 313 set \$1;
#X obj 259 335 t a a a;
#X obj 26 355 t f f;
#X obj 26 396 sel;
#X obj 26 418 outlet done;
#N canvas 418 102 738 574 specify_range 0;
#X obj 218 135 loadbang;
#X obj 218 157 t b b;
#X obj 218 210 \$2;
#X obj 352 174 \$3;
#X obj 325 250 == 0;
#X obj 371 255 == 0;
#X obj 325 272 &&;
#X obj 352 317 sel 1;
#X obj 352 414 array size \$1;
#X obj 218 289 swap;
#X obj 218 311 -;
#X obj 218 233 t f f f;
#X obj 237 257 outlet from;
#X obj 43 501 f;
#X obj 43 51 inlet;
#X obj 400 367 inlet;
#X obj 43 73 route bang float list;
#X obj 43 525 outlet range;
#X obj 352 209 t f f f;
#X obj 391 231 outlet to;
#X obj 449 453 - 1;
#X obj 218 333 + 1;
#X obj 125 96 t b l;
#X obj 84 166 t b f;
#N canvas 173 155 348 286 find_min_max 0;
#X obj 124 61 inlet;
#X obj 124 83 unpack;
#X obj 124 110 t f f;
#X obj 185 100 t f f;
#X obj 124 132 min;
#X obj 197 127 max;
#X obj 124 154 outlet;
#X obj 197 149 outlet;
#X connect 0 0 1 0;
#X connect 1 0 2 0;
#X connect 1 1 3 0;
#X connect 2 0 4 0;
#X connect 2 1 5 0;
#X connect 3 0 4 1;
#X connect 3 1 5 1;
#X connect 4 0 6 0;
#X connect 5 0 7 0;
#X restore 265 113 pd find_min_max;
#X obj 218 355 spigot;
#X obj 325 294 t f f;
#X obj 251 333 == 0;
#X obj 146 183 t f b;
#X obj 43 140 t b b;
#X msg 259 200 0;
#X obj 352 436 t f f f;
#X obj 356 462 min;
#X obj 356 484 t f f;
#X text 355 507 make sure the float doesn't exceed the size of the
array;
#X obj 361 343 loadbang;
#X obj 400 389 t b s;
#X connect 0 0 1 0;
#X connect 1 0 2 0;
#X connect 1 1 3 0;
#X connect 2 0 11 0;
#X connect 3 0 18 0;
#X connect 4 0 6 0;
#X connect 5 0 6 1;
#X connect 6 0 26 0;
#X connect 7 0 8 0;
#X connect 8 0 31 0;
#X connect 9 0 10 0;
#X connect 9 1 10 1;
#X connect 10 0 21 0;
#X connect 11 0 9 0;
#X connect 11 1 12 0;
#X connect 11 2 4 0;
#X connect 13 0 17 0;
#X connect 14 0 16 0;
#X connect 15 0 36 0;
#X connect 16 0 29 0;
#X connect 16 1 23 0;
#X connect 16 2 22 0;
#X connect 18 0 9 1;
#X connect 18 1 5 0;
#X connect 18 2 19 0;
#X connect 20 0 19 0;
#X connect 21 0 25 0;
#X connect 22 0 13 0;
#X connect 22 1 24 0;
#X connect 23 0 13 0;
#X connect 23 1 28 0;
#X connect 24 0 2 0;
#X connect 24 1 3 0;
#X connect 25 0 13 1;
#X connect 26 0 27 0;
#X connect 26 1 7 0;
#X connect 27 0 25 1;
#X connect 28 0 32 0;
#X connect 28 1 30 0;
#X connect 29 0 13 0;
#X connect 29 1 1 0;
#X connect 30 0 12 0;
#X connect 31 0 13 1;
#X connect 31 1 32 1;
#X connect 31 2 20 0;
#X connect 32 0 33 0;
#X connect 33 0 13 1;
#X connect 33 1 20 0;
#X connect 35 0 8 0;
#X connect 36 0 8 0;
#X connect 36 1 8 1;
#X restore 26 105 pd specify_range;
#X obj 26 185 i;
#X text 68 158 get integral part of division. if the range is even
\, the value in the middle will stay intact (if for example it's 7
\, the loop should run 3 thimes \, and the 4th value will stay intact)
;
#X obj 72 129 t f f;
#X obj 84 247 +;
#X obj 84 379 - 1;
#X obj 41 308 f;
#X obj 426 241 f;
#X obj 26 230 t f f;
#X obj 26 207 t f b;
#X obj 131 224 t b b;
#X text 349 23 reverse an array \, part or whole;
#X text 428 550 Written by Alexandros Drymonitis;
#X connect 0 0 1 0;
#X connect 0 0 23 0;
#X connect 1 0 0 1;
#X connect 2 0 3 0;
#X connect 2 0 6 0;
#X connect 3 0 2 1;
#X connect 4 0 5 0;
#X connect 5 0 0 0;
#X connect 5 1 2 0;
#X connect 6 0 12 1;
#X connect 6 1 16 0;
#X connect 7 0 10 0;
#X connect 7 1 15 0;
#X connect 8 0 13 0;
#X connect 9 0 17 0;
#X connect 10 0 9 0;
#X connect 10 1 17 1;
#X connect 10 2 8 0;
#X connect 11 0 27 0;
#X connect 12 0 17 1;
#X connect 13 0 17 0;
#X connect 13 1 12 0;
#X connect 14 0 26 0;
#X connect 15 0 8 1;
#X connect 16 0 9 1;
#X connect 18 0 19 0;
#X connect 19 0 20 0;
#X connect 20 0 26 1;
#X connect 20 1 21 0;
#X connect 21 0 22 0;
#X connect 22 0 17 0;
#X connect 22 1 15 0;
#X connect 22 2 16 0;
#X connect 23 0 24 0;
#X connect 23 1 7 0;
#X connect 24 0 25 0;
#X connect 26 0 11 0;
#X connect 26 1 29 0;
#X connect 26 2 33 1;
#X connect 27 0 35 0;
#X connect 29 0 32 1;
#X connect 29 1 30 1;
#X connect 30 0 31 0;
#X connect 31 0 24 1;
#X connect 32 0 0 1;
#X connect 33 0 2 1;
#X connect 34 0 4 0;
#X connect 34 1 30 0;
#X connect 35 0 34 0;
#X connect 35 1 36 0;
#X connect 36 0 32 0;
#X connect 36 1 33 0;
