#N canvas 158 141 920 578 10;
#X obj 144 105 f;
#X obj 384 279 ==;
#X obj 183 388 +;
#X obj 200 298 <;
#X obj 200 320 * 2;
#X obj 200 342 - 1;
#X obj 489 166 +;
#X obj 519 166 f;
#X msg 504 144 0;
#X obj 350 294 -;
#X obj 350 316 abs;
#X obj 183 262 t f f f f;
#X obj 350 360 t f f;
#X obj 183 463 spigot;
#X obj 377 405 f;
#X obj 456 267 spigot;
#X obj 489 189 <;
#X obj 403 322 sel 1;
#X obj 350 424 ||;
#X obj 350 446 == 0;
#X obj 377 383 sel 1;
#X obj 348 253 t f f f f;
#X obj 384 301 t f f f;
#X obj 183 174 t f f f;
#N canvas 601 98 443 250 loop 0;
#X obj 46 109 f;
#X obj 76 109 + 1;
#X msg 61 87 0;
#X obj 46 20 inlet;
#X obj 46 131 t f f;
#X obj 46 153 sel;
#X obj 46 175 outlet;
#X obj 73 153 outlet;
#X obj 152 54 inlet;
#X obj 152 76 - 1;
#X obj 46 42 t f b;
#X obj 46 64 until;
#X connect 0 0 1 0;
#X connect 0 0 4 0;
#X connect 1 0 0 1;
#X connect 2 0 0 1;
#X connect 3 0 10 0;
#X connect 4 0 5 0;
#X connect 4 1 7 0;
#X connect 5 0 6 0;
#X connect 8 0 9 0;
#X connect 9 0 5 1;
#X connect 10 0 11 0;
#X connect 10 1 2 0;
#X connect 11 0 0 0;
#X restore 144 152 pd loop;
#X obj 144 127 t f b;
#X obj 144 37 inlet;
#N canvas 814 111 341 491 get_max_distance 0;
#X obj 56 80 until;
#X obj 56 124 f;
#X obj 86 124 + 1;
#X msg 87 102 0;
#X obj 56 36 inlet;
#X obj 75 263 -;
#X obj 75 285 abs;
#X obj 56 354 /;
#X obj 161 315 r \$0-step;
#X obj 161 337 / 100;
#X obj 56 376 swap \$3;
#X obj 56 398 /;
#X obj 56 420 outlet;
#X obj 177 75 \$4;
#X obj 177 97 sel 0;
#X msg 177 119 10;
#X obj 75 308 max 0;
#X obj 115 308 f;
#X obj 56 146 t f f f;
#X obj 56 330 f;
#X obj 56 192 sel;
#X msg 102 285 0;
#X obj 177 144 s \$0-step;
#X obj 56 58 t f f b b b;
#X obj 71 170 - 1;
#X obj 116 359 r \$0-ramp;
#X obj 177 52 r \$0-new_step;
#X msg 142 263 set \$1;
#X msg 164 218 set \$1;
#X obj 75 241 tabread \$2;
#X obj 95 218 tabread \$1;
#X obj 164 196 r \$0-first_array;
#X obj 142 241 r \$0-second_array;
#X connect 0 0 1 0;
#X connect 1 0 2 0;
#X connect 1 0 18 0;
#X connect 2 0 1 1;
#X connect 3 0 1 1;
#X connect 4 0 23 0;
#X connect 5 0 6 0;
#X connect 6 0 16 0;
#X connect 7 0 10 0;
#X connect 8 0 9 0;
#X connect 9 0 7 1;
#X connect 10 0 11 0;
#X connect 10 1 11 1;
#X connect 11 0 12 0;
#X connect 13 0 14 0;
#X connect 14 0 15 0;
#X connect 14 1 22 0;
#X connect 15 0 22 0;
#X connect 16 0 17 0;
#X connect 16 0 19 1;
#X connect 17 0 16 1;
#X connect 18 0 20 0;
#X connect 18 1 29 0;
#X connect 18 2 30 0;
#X connect 19 0 7 0;
#X connect 20 0 19 0;
#X connect 21 0 16 1;
#X connect 23 0 0 0;
#X connect 23 1 24 0;
#X connect 23 2 3 0;
#X connect 23 3 21 0;
#X connect 23 4 13 0;
#X connect 24 0 20 1;
#X connect 25 0 10 1;
#X connect 26 0 13 0;
#X connect 27 0 29 0;
#X connect 28 0 30 0;
#X connect 29 0 5 0;
#X connect 30 0 5 1;
#X connect 31 0 28 0;
#X connect 32 0 27 0;
#X restore 471 303 pd get_max_distance;
#X obj 248 347 t f f;
#X obj 275 368 / 100;
#X obj 350 338 <;
#X obj 200 364 /;
#X obj 144 81 t f f f f;
#X obj 456 326 del;
#X obj 248 326 r \$0-step;
#X obj 527 259 spigot;
#X obj 489 211 t f f;
#X obj 560 228 == 0;
#X obj 456 242 t b b;
#X obj 527 281 outlet done;
#X text 391 352 if equal or difference is less than step \, write 2nd
table's value;
#X text 10 331 make step positive or negative;
#X text 591 305 calculate delay;
#X text 386 422 if neither equal or difference is less than step \,
use computation on left part of patch to write a value;
#X text 514 182 sum up number of equal values and when all are equal
prevent loop repetition;
#X obj 336 37 inlet array1;
#X obj 336 59 s \$0-first_array;
#X msg 195 218 set \$1;
#X obj 219 37 r \$0-first_array;
#X obj 446 37 inlet array2;
#X obj 446 59 s \$0-second_array;
#X msg 348 208 set \$1;
#X obj 565 37 inlet ramp_time;
#X obj 565 59 s \$0-ramp;
#X obj 675 59 s \$0-new_step;
#X obj 675 37 inlet new_step;
#X msg 259 487 set \$1;
#X obj 144 59 array size \$2;
#X obj 195 196 r \$0-second_array;
#X obj 183 240 tabread \$2;
#X obj 183 487 tabwrite \$2;
#X obj 259 465 r \$0-second_array;
#X obj 348 231 tabread \$1;
#X obj 348 186 r \$0-first_array;
#X text 590 531 made by Alexandros Drymonitis;
#X connect 0 0 25 0;
#X connect 1 0 22 0;
#X connect 2 0 13 0;
#X connect 3 0 4 0;
#X connect 4 0 5 0;
#X connect 5 0 31 0;
#X connect 6 0 7 0;
#X connect 6 0 16 0;
#X connect 7 0 6 1;
#X connect 8 0 6 1;
#X connect 9 0 10 0;
#X connect 10 0 30 0;
#X connect 11 0 2 0;
#X connect 11 1 3 0;
#X connect 11 2 9 0;
#X connect 11 3 1 0;
#X connect 12 0 18 0;
#X connect 12 1 20 0;
#X connect 13 0 60 0;
#X connect 14 0 60 0;
#X connect 15 0 33 0;
#X connect 16 0 36 0;
#X connect 17 0 14 0;
#X connect 18 0 19 0;
#X connect 19 0 13 1;
#X connect 20 0 14 0;
#X connect 21 0 3 1;
#X connect 21 1 9 1;
#X connect 21 2 14 1;
#X connect 21 3 1 1;
#X connect 22 0 18 1;
#X connect 22 1 17 0;
#X connect 22 2 6 0;
#X connect 23 0 59 0;
#X connect 23 1 60 1;
#X connect 23 2 62 0;
#X connect 24 0 38 0;
#X connect 24 1 23 0;
#X connect 25 0 24 0;
#X connect 25 1 8 0;
#X connect 26 0 57 0;
#X connect 27 0 33 1;
#X connect 28 0 31 1;
#X connect 28 1 29 0;
#X connect 29 0 30 1;
#X connect 30 0 12 0;
#X connect 31 0 2 1;
#X connect 32 0 0 0;
#X connect 32 1 24 1;
#X connect 32 2 27 0;
#X connect 32 3 16 1;
#X connect 33 0 0 0;
#X connect 34 0 28 0;
#X connect 35 0 39 0;
#X connect 36 0 15 1;
#X connect 36 1 37 0;
#X connect 37 0 35 1;
#X connect 38 0 15 0;
#X connect 38 1 35 0;
#X connect 45 0 46 0;
#X connect 47 0 59 0;
#X connect 48 0 57 1;
#X connect 49 0 50 0;
#X connect 51 0 62 0;
#X connect 52 0 53 0;
#X connect 55 0 54 0;
#X connect 56 0 60 0;
#X connect 57 0 32 0;
#X connect 58 0 47 0;
#X connect 59 0 11 0;
#X connect 61 0 56 0;
#X connect 62 0 21 0;
#X connect 63 0 51 0;
