#N canvas 438 82 727 542 10;
#X obj 24 18 inlet find;
#X obj 24 116 array size \$1;
#X obj 24 274 until;
#X obj 24 318 f;
#X obj 54 318 + 1;
#X msg 42 296 0;
#X obj 167 357 tabread \$1;
#X obj 24 69 t b f;
#X obj 167 379 ==;
#X obj 79 418 spigot;
#X obj 79 440 outlet index;
#X obj 298 200 sel;
#X obj 284 155 - 1;
#X obj 330 245 outlet done;
#N canvas 789 83 361 315 get_remaining_indexes 0;
#X obj 81 148 f;
#X obj 81 190 -;
#X obj 123 131 inlet array_size;
#X obj 140 173 inlet current_index;
#X obj 81 212 outlet remaining_indexes;
#X obj 81 75 inlet find_again;
#X obj 95 99 inlet find_all;
#X connect 0 0 1 0;
#X connect 1 0 4 0;
#X connect 2 0 0 1;
#X connect 3 0 1 1;
#X connect 5 0 0 0;
#X connect 6 0 0 0;
#X restore 93 239 pd get_remaining_indexes;
#X obj 199 423 sel 1;
#X obj 298 222 t b b;
#X obj 24 40 route find find_again find_all;
#X obj 162 63 t b f b;
#X obj 42 498 spigot;
#X obj 24 340 t f b f f f;
#X msg 208 481 1;
#X msg 298 436 0;
#X obj 284 177 t f f;
#X obj 24 138 t f b f;
#X text 268 34 Vanilla abstraction to find the location (index) of
a value in an array;
#X text 422 495 Written by Alexandros Drymonitis;
#X obj 167 401 t f f;
#X connect 0 0 17 0;
#X connect 1 0 24 0;
#X connect 2 0 3 0;
#X connect 3 0 4 0;
#X connect 3 0 20 0;
#X connect 4 0 3 1;
#X connect 5 0 3 1;
#X connect 6 0 8 0;
#X connect 7 0 1 0;
#X connect 7 1 8 1;
#X connect 8 0 27 0;
#X connect 9 0 10 0;
#X connect 11 0 16 0;
#X connect 12 0 23 0;
#X connect 14 0 2 0;
#X connect 15 0 2 1;
#X connect 16 0 22 0;
#X connect 16 1 13 0;
#X connect 17 0 7 0;
#X connect 17 1 14 0;
#X connect 17 2 18 0;
#X connect 18 0 1 0;
#X connect 18 1 8 1;
#X connect 18 2 21 0;
#X connect 19 0 14 1;
#X connect 20 0 11 0;
#X connect 20 1 19 0;
#X connect 20 2 14 3;
#X connect 20 3 9 0;
#X connect 20 4 6 0;
#X connect 21 0 19 1;
#X connect 22 0 19 1;
#X connect 23 0 14 2;
#X connect 23 1 11 1;
#X connect 24 0 2 0;
#X connect 24 1 5 0;
#X connect 24 2 12 0;
#X connect 27 0 9 1;
#X connect 27 1 15 0;
