#N canvas 739 466 499 397 10;
#X obj 35 71 inlet;
#X obj 35 93 t b f b;
#X obj 35 115 until;
#X obj 35 169 f;
#X obj 65 169 + 1;
#X obj 35 219 + 1;
#X obj 35 241 tabread \$1;
#X obj 35 313 tabwrite \$1;
#X obj 35 191 t f f f;
#X obj 221 313 outlet done;
#N canvas 1178 336 404 375 choose_end_point 0;
#X obj 186 92 array size \$1;
#X obj 186 114 - 1;
#X obj 186 214 spigot;
#X obj 56 147 spigot;
#X msg 56 169 0;
#X obj 56 53 inlet;
#X obj 56 75 t b b;
#X obj 193 46 t f f;
#X obj 56 295 outlet;
#X obj 225 192 == 0;
#X obj 186 136 t f f;
#X obj 291 153 outlet;
#X obj 193 24 r \$0-end_point;
#X connect 0 0 1 0;
#X connect 1 0 10 0;
#X connect 2 0 8 0;
#X connect 3 0 4 0;
#X connect 4 0 8 0;
#X connect 5 0 6 0;
#X connect 6 0 3 0;
#X connect 6 1 0 0;
#X connect 7 0 3 1;
#X connect 7 1 9 0;
#X connect 9 0 2 1;
#X connect 10 0 2 0;
#X connect 10 1 11 0;
#X connect 12 0 7 0;
#X restore 214 110 pd choose_end_point;
#X obj 101 152 t f f;
#N canvas 139 513 475 407 done 0;
#X obj 45 80 sel;
#X obj 97 265 f;
#X msg 65 242 0;
#X text 96 242 when done \, write a 0 to the last position;
#X obj 65 193 spigot;
#X obj 45 11 inlet count;
#X obj 63 34 inlet target;
#X obj 225 72 t f f;
#X obj 218 146 spigot;
#X obj 257 124 == 0;
#X obj 65 309 outlet value;
#X obj 97 287 outlet index;
#X obj 215 287 outlet done;
#X obj 336 119 outlet stop_loop;
#X obj 218 218 array size \$1;
#X obj 63 56 t f f;
#X obj 65 218 t b b;
#X obj 45 102 t b b b b;
#X obj 218 193 f;
#X obj 236 170 inlet array_size;
#X obj 225 50 r \$0-done;
#X connect 0 0 17 0;
#X connect 1 0 11 0;
#X connect 2 0 10 0;
#X connect 4 0 16 0;
#X connect 5 0 0 0;
#X connect 6 0 15 0;
#X connect 7 0 4 1;
#X connect 7 1 9 0;
#X connect 8 0 18 0;
#X connect 9 0 8 1;
#X connect 15 0 0 1;
#X connect 15 1 1 1;
#X connect 16 0 2 0;
#X connect 16 1 1 0;
#X connect 17 0 12 0;
#X connect 17 1 4 0;
#X connect 17 2 8 0;
#X connect 17 3 13 0;
#X connect 18 0 14 0;
#X connect 19 0 18 1;
#X connect 20 0 7 0;
#X restore 191 241 pd done;
#N canvas 639 82 450 517 get_arg 0;
#X obj 101 17 loadbang;
#X obj 101 111 sel resize shift_left shift_right;
#X obj 101 153 t b b;
#X msg 101 195 1;
#X msg 133 195 0;
#X msg 223 273 1;
#X obj 253 153 t b b;
#X msg 253 195 -1;
#X obj 101 89 symbol \$2;
#X obj 133 357 t f f;
#X obj 133 399 s \$0-end_point;
#X obj 165 378 s \$0-done;
#X obj 101 458 outlet;
#X obj 177 153 t b b b;
#X obj 223 295 s \$0-done;
#X msg 200 319 0;
#X obj 200 341 s \$0-end_point;
#X msg 285 195 1;
#X obj 285 217 t f f;
#X obj 285 262 s \$0-end_point;
#X obj 317 239 s \$0-done;
#X obj 181 17 inlet remove_type;
#X connect 0 0 8 0;
#X connect 1 0 2 0;
#X connect 1 1 13 0;
#X connect 1 2 6 0;
#X connect 1 3 2 0;
#X connect 2 0 3 0;
#X connect 2 1 4 0;
#X connect 3 0 12 0;
#X connect 4 0 9 0;
#X connect 5 0 14 0;
#X connect 6 0 7 0;
#X connect 6 1 17 0;
#X connect 7 0 12 0;
#X connect 8 0 1 0;
#X connect 9 0 10 0;
#X connect 9 1 11 0;
#X connect 13 0 3 0;
#X connect 13 1 15 0;
#X connect 13 2 5 0;
#X connect 15 0 16 0;
#X connect 17 0 18 0;
#X connect 18 0 19 0;
#X connect 18 1 20 0;
#X connect 21 0 8 0;
#X restore 101 129 pd get_arg;
#X obj 101 71 inlet remove_type;
#X text 28 22 Vanilla abstraction which removes a value from an array
based on its index;
#X text 229 359 Written by Alexandros Drymonitis;
#X connect 0 0 1 0;
#X connect 1 0 2 0;
#X connect 1 1 3 1;
#X connect 1 2 10 0;
#X connect 2 0 3 0;
#X connect 3 0 4 0;
#X connect 3 0 8 0;
#X connect 4 0 3 1;
#X connect 5 0 6 0;
#X connect 6 0 7 0;
#X connect 8 0 5 0;
#X connect 8 1 7 1;
#X connect 8 2 12 0;
#X connect 10 0 12 1;
#X connect 10 1 12 2;
#X connect 11 0 4 1;
#X connect 11 1 5 1;
#X connect 12 0 7 0;
#X connect 12 1 7 1;
#X connect 12 2 9 0;
#X connect 12 3 2 1;
#X connect 13 0 11 0;
#X connect 14 0 13 0;
