#N canvas 274 143 934 464 10;
#X msg 55 166 resize \$1;
#X obj 38 210 until;
#X obj 38 252 f;
#X obj 135 346 + 1;
#X obj 38 274 t f f f;
#X msg 302 93 3;
#X obj 302 115 until;
#X obj 302 160 f;
#X obj 328 160 + 1;
#X msg 317 139 0;
#X obj 408 232 moses 1;
#X obj 454 309 +;
#X obj 334 215 t f f;
#X obj 334 262 +;
#X obj 55 144 + 3;
#X obj 65 252 - 1;
#X obj 56 231 - 1;
#X obj 302 73 sel 0;
#X obj 334 239 moses 1;
#X obj 38 122 t f f f f f b;
#X obj 61 319 tabread \$1;
#X obj 61 371 tabwrite \$1;
#X obj 334 301 tabread \$1;
#X obj 334 326 tabwrite \$1;
#X obj 38 70 inlet;
#X text 55 392 move array elements one position to the right;
#X text 82 188 add three points to the array;
#X text 416 328 then add the guard points;
#X obj 387 34 inlet set_table;
#X obj 387 56 symbol;
#X obj 387 78 t s s s;
#X msg 137 262 set \$1;
#X obj 137 284 t a a a a;
#X text 505 33 in case you need to set the table dynamically;
#X obj 55 188 s;
#X obj 152 171 symbol \$1;
#X obj 152 148 loadbang;
#X obj 38 95 array size \$1;
#X obj 302 182 t f f;
#X obj 302 348 sel 2;
#X obj 302 370 outlet done;
#X connect 0 0 34 0;
#X connect 1 0 2 0;
#X connect 2 0 4 0;
#X connect 2 0 15 0;
#X connect 3 0 21 1;
#X connect 4 0 17 0;
#X connect 4 1 20 0;
#X connect 4 2 3 0;
#X connect 5 0 6 0;
#X connect 6 0 7 0;
#X connect 7 0 8 0;
#X connect 7 0 38 0;
#X connect 8 0 7 1;
#X connect 9 0 7 1;
#X connect 10 0 23 1;
#X connect 10 1 11 0;
#X connect 11 0 23 1;
#X connect 12 0 18 0;
#X connect 12 1 10 0;
#X connect 13 0 22 0;
#X connect 14 0 0 0;
#X connect 15 0 2 1;
#X connect 16 0 2 1;
#X connect 17 0 5 0;
#X connect 18 0 13 0;
#X connect 18 1 22 0;
#X connect 19 0 1 0;
#X connect 19 1 14 0;
#X connect 19 2 16 0;
#X connect 19 3 13 1;
#X connect 19 4 11 1;
#X connect 19 5 9 0;
#X connect 20 0 21 0;
#X connect 22 0 23 0;
#X connect 24 0 37 0;
#X connect 28 0 29 0;
#X connect 29 0 30 0;
#X connect 30 0 37 1;
#X connect 30 1 34 1;
#X connect 30 2 31 0;
#X connect 31 0 32 0;
#X connect 32 0 20 0;
#X connect 32 1 21 0;
#X connect 32 2 23 0;
#X connect 32 3 22 0;
#X connect 35 0 34 1;
#X connect 36 0 35 0;
#X connect 37 0 19 0;
#X connect 38 0 39 0;
#X connect 38 1 12 0;
#X connect 39 0 40 0;
