#N canvas 736 276 704 526 10;
#X obj 169 108 loadbang;
#X obj 169 130 t b b;
#X obj 70 203 pack s f;
#N canvas 91 430 378 409 hanning 0;
#X obj 61 78 t f b;
#X obj 61 100 until;
#X obj 61 145 f;
#X obj 91 145 + 1;
#X msg 79 122 0;
#X obj 61 235 cos;
#X obj 61 257 swap 1;
#X obj 61 279 -;
#X obj 61 301 * 0.5;
#X obj 61 167 t f f;
#X obj 61 189 *;
#X msg 124 105 1;
#X obj 124 127 atan;
#X obj 124 149 * 8;
#X obj 61 31 inlet;
#X obj 61 53 t f b;
#X obj 108 195 r \$0-size;
#X obj 61 212 / \$3;
#X obj 61 323 tabwrite \$1;
#X connect 0 0 1 0;
#X connect 0 1 4 0;
#X connect 1 0 2 0;
#X connect 2 0 3 0;
#X connect 2 0 9 0;
#X connect 3 0 2 1;
#X connect 4 0 2 1;
#X connect 5 0 6 0;
#X connect 6 0 7 0;
#X connect 6 1 7 1;
#X connect 7 0 8 0;
#X connect 8 0 18 0;
#X connect 9 0 10 0;
#X connect 9 1 18 1;
#X connect 10 0 17 0;
#X connect 11 0 12 0;
#X connect 12 0 13 0;
#X connect 13 0 10 1;
#X connect 14 0 15 0;
#X connect 15 0 0 0;
#X connect 15 1 11 0;
#X connect 16 0 17 1;
#X connect 17 0 5 0;
#X restore 70 451 pd hanning;
#X obj 219 130 inlet;
#X obj 386 204 s \$0-size;
#N canvas 1 82 345 373 hamming 0;
#X obj 67 84 until;
#X obj 67 129 f;
#X obj 97 129 + 1;
#X msg 85 107 0;
#X obj 67 174 *;
#X msg 154 79 1;
#X obj 154 101 atan;
#X obj 67 218 cos;
#X obj 67 240 * 0.46;
#X obj 67 151 t f f;
#X obj 154 123 * 8;
#X obj 67 62 t f b;
#X obj 67 262 swap 0.54;
#X obj 67 284 -;
#X obj 120 179 r \$0-size;
#X obj 67 15 inlet;
#X obj 67 37 t f b;
#X obj 67 196 / \$3;
#X obj 67 306 tabwrite \$1;
#X connect 0 0 1 0;
#X connect 1 0 2 0;
#X connect 1 0 9 0;
#X connect 2 0 1 1;
#X connect 3 0 1 1;
#X connect 4 0 17 0;
#X connect 5 0 6 0;
#X connect 6 0 10 0;
#X connect 7 0 8 0;
#X connect 8 0 12 0;
#X connect 9 0 4 0;
#X connect 9 1 18 1;
#X connect 10 0 4 1;
#X connect 11 0 0 0;
#X connect 11 1 3 0;
#X connect 12 0 13 0;
#X connect 12 1 13 1;
#X connect 13 0 18 0;
#X connect 14 0 17 1;
#X connect 15 0 16 0;
#X connect 16 0 11 0;
#X connect 16 1 5 0;
#X connect 17 0 7 0;
#X restore 149 405 pd hamming;
#N canvas 359 273 484 439 blackman 0;
#X obj 96 85 until;
#X obj 96 130 f;
#X obj 126 130 + 1;
#X msg 114 108 0;
#X obj 96 175 *;
#X msg 251 80 1;
#X obj 251 102 atan;
#X obj 96 63 t f b;
#X msg 386 55 0.16;
#X obj 251 124 t f f;
#X obj 251 146 * 8;
#X obj 265 169 *;
#X obj 283 146 * 16;
#X obj 96 219 cos;
#X obj 265 213 cos;
#X obj 265 290 *;
#X obj 96 263 swap;
#X obj 96 285 -;
#X obj 96 307 +;
#X obj 386 179 t f f;
#X obj 96 241 * 0.5;
#X obj 418 202 swap 1;
#X obj 418 224 -;
#X obj 418 246 / 2;
#X obj 386 273 / 2;
#X obj 96 152 t f f f;
#X obj 148 180 r \$0-size;
#X obj 96 16 inlet;
#X obj 96 38 t f b b;
#X obj 96 197 / \$3;
#X obj 265 191 / \$3;
#X obj 96 329 tabwrite \$1;
#X obj 308 174 r \$0-size;
#X connect 0 0 1 0;
#X connect 1 0 2 0;
#X connect 1 0 25 0;
#X connect 2 0 1 1;
#X connect 3 0 1 1;
#X connect 4 0 29 0;
#X connect 5 0 6 0;
#X connect 6 0 9 0;
#X connect 7 0 0 0;
#X connect 7 1 3 0;
#X connect 8 0 19 0;
#X connect 9 0 10 0;
#X connect 9 1 12 0;
#X connect 10 0 4 1;
#X connect 11 0 30 0;
#X connect 12 0 11 1;
#X connect 13 0 20 0;
#X connect 14 0 15 0;
#X connect 15 0 18 1;
#X connect 16 0 17 0;
#X connect 16 1 17 1;
#X connect 17 0 18 0;
#X connect 18 0 31 0;
#X connect 19 0 24 0;
#X connect 19 1 21 0;
#X connect 20 0 16 0;
#X connect 21 0 22 0;
#X connect 21 1 22 1;
#X connect 22 0 23 0;
#X connect 23 0 16 1;
#X connect 24 0 15 1;
#X connect 25 0 4 0;
#X connect 25 1 31 1;
#X connect 25 2 11 0;
#X connect 26 0 29 1;
#X connect 27 0 28 0;
#X connect 28 0 7 0;
#X connect 28 1 5 0;
#X connect 28 2 8 0;
#X connect 29 0 13 0;
#X connect 30 0 14 0;
#X connect 32 0 30 1;
#X restore 229 361 pd blackman;
#N canvas 205 82 422 453 balckman_harris 0;
#X obj 28 82 until;
#X obj 28 60 t f b f;
#X obj 28 127 f;
#X obj 58 127 + 1;
#X msg 46 105 0;
#X msg 179 131 1;
#X obj 179 153 atan;
#X obj 28 149 t f f f f;
#N canvas 1 82 380 252 sineA1 0;
#X obj 134 50 inlet;
#X obj 134 73 *;
#X obj 134 118 cos;
#X obj 134 140 * 0.48829;
#X obj 134 162 outlet;
#X obj 240 34 inlet;
#X obj 240 56 * 8;
#X obj 134 95 /;
#X obj 184 50 inlet;
#X connect 0 0 1 0;
#X connect 1 0 7 0;
#X connect 2 0 3 0;
#X connect 3 0 4 0;
#X connect 5 0 6 0;
#X connect 6 0 1 1;
#X connect 7 0 2 0;
#X connect 8 0 7 1;
#X restore 28 251 pd sineA1;
#X obj 179 175 t f f f;
#N canvas 1 82 380 252 sineA2 0;
#X obj 134 50 inlet;
#X obj 134 75 *;
#X obj 134 120 cos;
#X obj 134 164 outlet;
#X obj 230 36 inlet;
#X obj 230 58 * 16;
#X obj 134 142 * 0.14128;
#X obj 134 97 /;
#X obj 184 50 inlet;
#X connect 0 0 1 0;
#X connect 1 0 7 0;
#X connect 2 0 6 0;
#X connect 4 0 5 0;
#X connect 5 0 1 1;
#X connect 6 0 3 0;
#X connect 7 0 2 0;
#X connect 8 0 7 1;
#X restore 48 222 pd sineA2;
#N canvas 1 82 380 252 sineA3 0;
#X obj 134 50 inlet;
#X obj 134 75 *;
#X obj 134 120 cos;
#X obj 134 164 outlet;
#X obj 220 36 inlet;
#X obj 220 58 * 24;
#X obj 134 142 * 0.01168;
#X obj 134 97 /;
#X obj 178 50 inlet;
#X connect 0 0 1 0;
#X connect 1 0 7 0;
#X connect 2 0 6 0;
#X connect 4 0 5 0;
#X connect 5 0 1 1;
#X connect 6 0 3 0;
#X connect 7 0 2 0;
#X connect 8 0 7 1;
#X restore 68 192 pd sineA3;
#X obj 28 319 +;
#X text 119 277 a0;
#X obj 28 341 -;
#X obj 28 275 swap 0.35875;
#X obj 28 297 -;
#X obj 98 149 t f f f;
#X obj 28 37 t f b;
#X obj 28 15 inlet;
#X obj 28 363 tabwrite \$1;
#X connect 0 0 2 0;
#X connect 1 0 0 0;
#X connect 1 1 4 0;
#X connect 1 2 17 0;
#X connect 2 0 3 0;
#X connect 2 0 7 0;
#X connect 3 0 2 1;
#X connect 4 0 2 1;
#X connect 5 0 6 0;
#X connect 6 0 9 0;
#X connect 7 0 8 0;
#X connect 7 1 10 0;
#X connect 7 2 11 0;
#X connect 7 3 20 1;
#X connect 8 0 15 0;
#X connect 9 0 11 2;
#X connect 9 1 10 2;
#X connect 9 2 8 2;
#X connect 10 0 12 1;
#X connect 11 0 14 1;
#X connect 12 0 14 0;
#X connect 14 0 20 0;
#X connect 15 0 16 0;
#X connect 15 1 16 1;
#X connect 16 0 12 0;
#X connect 17 0 11 1;
#X connect 17 1 10 1;
#X connect 17 2 8 1;
#X connect 18 0 1 0;
#X connect 18 1 5 0;
#X connect 19 0 18 0;
#X restore 309 316 pd balckman_harris;
#X obj 70 63 inlet;
#X obj 70 227 list trim;
#X obj 70 181 symbol \$2;
#X obj 201 186 \$3;
#X obj 432 136 array size \$1;
#X obj 386 113 t f b f;
#X msg 409 159 const 0;
#X obj 409 181 s \$1;
#X obj 70 250 route hanning hamming blackman blackman-harris;
#X text 32 26 [window]: vanilla abstraction that creates various windows
;
#X text 395 461 Written by Alexandros Drymonitis;
#X obj 70 130 t s b;
#X obj 70 85 route symbol bang;
#X msg 451 289 \$1 window type is not supported;
#X obj 451 311 print window;
#X obj 451 267 list split 1;
#X obj 102 428 s \$0-resize;
#X obj 181 384 s \$0-resize;
#X obj 261 339 s \$0-resize;
#X obj 341 295 s \$0-resize;
#X obj 386 89 r \$0-resize;
#X obj 70 405 t f f;
#X obj 149 361 t f f;
#X obj 229 316 t f f;
#X obj 309 272 t f f;
#X connect 0 0 1 0;
#X connect 1 0 11 0;
#X connect 1 1 12 0;
#X connect 2 0 10 0;
#X connect 4 0 12 1;
#X connect 9 0 21 0;
#X connect 10 0 17 0;
#X connect 11 0 2 0;
#X connect 12 0 2 1;
#X connect 14 0 5 0;
#X connect 14 1 15 0;
#X connect 14 2 13 0;
#X connect 15 0 16 0;
#X connect 17 0 30 0;
#X connect 17 1 31 0;
#X connect 17 2 32 0;
#X connect 17 3 33 0;
#X connect 17 4 24 0;
#X connect 20 0 11 0;
#X connect 20 1 12 0;
#X connect 21 0 20 0;
#X connect 21 1 1 0;
#X connect 22 0 23 0;
#X connect 24 0 22 0;
#X connect 29 0 14 0;
#X connect 30 0 3 0;
#X connect 30 1 25 0;
#X connect 31 0 6 0;
#X connect 31 1 26 0;
#X connect 32 0 7 0;
#X connect 32 1 27 0;
#X connect 33 0 8 0;
#X connect 33 1 28 0;
